<?xml version="1.0" encoding="iso-8859-1"?>
<!-- Uploaded to: SVG Repo, www.svgrepo.com, Generator: SVG Repo Mixer Tools -->
<svg height="800px" width="800px" version="1.1" id="Layer_1" xmlns="http://www.w3.org/2000/svg" xmlns:xlink="http://www.w3.org/1999/xlink" 
	 viewBox="0 0 511.995 511.995" xml:space="preserve">
<polygon points="130.592,164.155 94.208,56.484 0,56.484 0,27.715 114.856,27.715 157.848,154.939 "/>
<circle cx="339.342" cy="433.847" r="55.401"/>
<circle cx="172.243" cy="433.847" r="55.401"/>
<polygon style="fill:#FFFFFF;" points="133.224,345.659 71.664,147.995 448.984,147.995 378.536,345.659 "/>
<g>
	<path style="fill:#E21B1B;" d="M437.648,155.995l-64.752,181.664H139.112L82.544,155.995L437.648,155.995 M460.336,139.996H60.8
		l66.536,213.664h256.84L460.336,139.996z"/>
	<circle style="fill:#E21B1B;" cx="394.742" cy="140" r="117.253"/>
</g>
<path style="fill:#FFFFFF;" d="M383.944,223.459v-19.344c-12.053-0.354-23.88-3.358-34.64-8.8l6.12-23.84
	c10.369,5.724,21.989,8.801,33.832,8.96c11.616,0,19.56-4.48,19.56-12.624c0-7.752-6.52-12.64-21.6-17.736
	c-21.8-7.336-36.688-17.52-36.688-37.28c0-17.936,12.64-32,34.448-36.272V57.195h19.96v17.936
	c10.211,0.156,20.277,2.445,29.552,6.72l-5.904,23.032c-9.136-4.494-19.17-6.866-29.352-6.936c-13.24,0-17.52,5.704-17.52,11.416
	c0,6.72,7.136,11,24.456,17.52c24.24,8.56,34.032,19.76,34.032,38.112c0,18.136-12.84,33.6-36.272,37.696v20.8L383.944,223.459z"/>
</svg>